<mxfile host="app.diagrams.net" modified="2023-07-10T17:12:37.051Z" agent="Mozilla/5.0 (Macintosh; Intel Mac OS X 10_15_7) AppleWebKit/605.1.15 (KHTML, like Gecko) Version/16.5.1 Safari/605.1.15" version="21.6.1" etag="Fcj6Rs4wsfQifOC_N-z1" type="github">
  <diagram name="Page-1" id="1Rlcybx5IYc6khSi3Hvt">
    <mxGraphModel>
      <root>
        <mxCell id="0" />
        <mxCell id="1" parent="0" />
      </root>
    </mxGraphModel>
  </diagram>
</mxfile>
